<?xml version="1.0" encoding="UTF-8"?>
<!DOCTYPE svg PUBLIC "-//W3C//DTD SVG 1.1//EN" "http://www.w3.org/Graphics/SVG/1.1/DTD/svg11.dtd">
<!-- Creator: CorelDRAW X7 -->
<svg xmlns="http://www.w3.org/2000/svg" xml:space="preserve" width="210mm" height="297mm" version="1.1" style="shape-rendering:geometricPrecision; text-rendering:geometricPrecision; image-rendering:optimizeQuality; fill-rule:evenodd; clip-rule:evenodd"
viewBox="0 0 21000 29700"
 xmlns:xlink="http://www.w3.org/1999/xlink">
 <defs>
  <style type="text/css">
   <![CDATA[
    .str0 {stroke:#373435;stroke-width:17.64}
    .fil4 {fill:none}
    .fil1 {fill:#2E2606}
    .fil2 {fill:#2F2706}
    .fil3 {fill:#2F2707}
    .fil0 {fill:#DC4B36}
   ]]>
  </style>
 </defs>
 <g id="Layer_x0020_1">
  <metadata id="CorelCorpID_0Corel-Layer"/>
  <g id="_428173520">
   <path class="fil0" d="M4743 12180c148,99 546,526 696,683 226,236 189,-20 501,132 285,139 327,373 264,645 146,98 535,516 682,670 202,212 179,-32 487,118 486,238 346,976 -232,976 -305,0 -496,-218 -496,-551 0,-95 20,-107 27,-193 -131,-88 -601,-619 -716,-661l0 1874c483,256 298,965 -248,965 -305,0 -496,-219 -496,-552 0,-353 330,-392 330,-523l0 -1737c0,-164 -330,-115 -330,-606 0,-95 20,-107 27,-193 -168,-113 -648,-704 -799,-744 -130,86 -1688,1677 -1978,1963 -479,473 -16,815 358,1145 79,69 145,144 221,220l2122 2122c257,257 276,366 600,366 222,0 728,-577 930,-779l2136 -2136c475,-475 423,-611 -14,-1048l-2563 -2563c-460,-460 -602,-515 -1075,-41 -120,120 -351,324 -434,448z"/>
   <path class="fil1" d="M12240 17444c-254,0 -965,48 -965,-303 0,-205 24,-187 138,-358l826 55c430,3 690,13 690,275 0,260 -413,331 -689,331zm-27 -2563c-332,0 -689,-29 -689,-524 0,-544 378,-579 716,-579 678,0 652,1103 -27,1103zm-1103 496c-102,152 -803,544 -497,1048 55,89 102,116 194,165 -212,316 -331,199 -331,744 0,806 1360,744 1930,744 587,0 1287,-265 1479,-836 65,-193 67,-471 14,-657 -190,-672 -1062,-596 -1655,-661 -205,-22 -523,-51 -748,-51 62,-118 127,-206 193,-331 516,120 1123,72 1544,-247 252,-190 385,-510 385,-910 0,-276 -126,-429 -220,-607 228,0 345,-27 579,-27l0 -579 -1130 0c-328,0 -930,-246 -1637,100 -557,273 -749,934 -586,1488 127,430 421,527 486,617z"/>
   <path class="fil2" d="M16072 13172l0 524c657,0 523,-154 523,854 0,886 -190,1985 910,1985 392,0 426,19 821,-89 635,-171 392,-172 254,-766 -200,96 -965,295 -965,-276l0 -1708 965 0 0 -662 -965 0 0 -992 -661 0c0,271 -111,599 -232,761 -113,152 -289,231 -475,269 -103,20 -175,-2 -175,100z"/>
   <path class="fil2" d="M14280 13668c167,14 441,83 441,276l0 1901c0,139 -278,138 -441,138l0 552 1874 0 0 -552c-167,0 -441,-2 -441,-138l0 -2756 -1295 0c-123,0 -138,468 -138,579z"/>
   <path class="fil3" d="M14528 11931c0,404 166,662 606,662 839,0 761,-1185 83,-1185 -193,0 -379,-5 -536,152 -75,75 -153,233 -153,371z"/>
  </g>
  <rect class="fil4 str0" x="1960" y="11209" width="17195" height="7283" rx="464" ry="423"/>
 </g>
</svg>
